<?xml version="1.0" encoding="UTF-8"?>
<!DOCTYPE svg PUBLIC "-//W3C//DTD SVG 1.1//EN" "http://www.w3.org/Graphics/SVG/1.1/DTD/svg11.dtd">
<svg xmlns="http://www.w3.org/2000/svg" version="1.1" width="800px" height="533px" style="shape-rendering:geometricPrecision; text-rendering:geometricPrecision; image-rendering:optimizeQuality; fill-rule:evenodd; clip-rule:evenodd" xmlns:xlink="http://www.w3.org/1999/xlink">
<g><path style="opacity:1" fill="#017bc2" d="M -0.5,-0.5 C 266.167,-0.5 532.833,-0.5 799.5,-0.5C 799.5,43.1667 799.5,86.8333 799.5,130.5C 532.833,130.5 266.167,130.5 -0.5,130.5C -0.5,86.8333 -0.5,43.1667 -0.5,-0.5 Z"/></g>
<g><path style="opacity:1" fill="#fcf000" d="M -0.5,130.5 C 266.167,130.5 532.833,130.5 799.5,130.5C 799.5,220.833 799.5,311.167 799.5,401.5C 532.833,401.5 266.167,401.5 -0.5,401.5C -0.5,311.167 -0.5,220.833 -0.5,130.5 Z"/></g>
<g><path style="opacity:1" fill="#130d0a" d="M 270.5,238.5 C 271.105,249.091 270.438,259.425 268.5,269.5C 266.41,273.688 264.077,277.688 261.5,281.5C 249.18,282.666 236.847,282.833 224.5,282C 223.751,280.266 223.251,278.433 223,276.5C 221.89,274.963 220.39,274.297 218.5,274.5C 216.475,262.946 215.975,251.279 217,239.5C 217.662,236.583 219.495,235.25 222.5,235.5C 222.297,233.61 222.963,232.11 224.5,231C 238.036,227.347 251.369,227.847 264.5,232.5C 264.5,233.833 264.5,235.167 264.5,236.5C 266.718,236.614 268.718,237.28 270.5,238.5 Z"/></g>
<g><path style="opacity:1" fill="#0e0b0a" d="M 436.5,279.5 C 436.298,277.05 436.631,274.717 437.5,272.5C 443.19,269.645 448.19,265.812 452.5,261C 453.448,260.517 454.448,260.351 455.5,260.5C 455.109,256.46 453.776,252.793 451.5,249.5C 451.59,246.848 450.924,244.515 449.5,242.5C 443.598,243.689 437.932,245.356 432.5,247.5C 430.908,243.971 429.574,240.305 428.5,236.5C 430.527,236.662 432.527,236.495 434.5,236C 438.798,233.672 443.131,231.339 447.5,229C 450.167,228.333 452.833,228.333 455.5,229C 456.978,234.219 458.645,239.386 460.5,244.5C 462.167,243.167 463.833,241.833 465.5,240.5C 466.684,236.443 468.351,232.61 470.5,229C 479.776,228.938 483.609,233.438 482,242.5C 481,245.833 480,249.167 479,252.5C 473.743,260.259 467.243,266.925 459.5,272.5C 458.316,274.046 457.316,275.713 456.5,277.5C 452.838,278.68 449.838,280.847 447.5,284C 446,284.5 444.5,285 443,285.5C 440.322,283.986 438.155,281.986 436.5,279.5 Z"/></g>
<g><path style="opacity:1" fill="#c7b328" d="M 411.5,233.5 C 398.167,233.5 384.833,233.5 371.5,233.5C 371.5,238.5 371.5,243.5 371.5,248.5C 370.512,243.36 370.179,238.026 370.5,232.5C 384.344,232.171 398.01,232.504 411.5,233.5 Z"/></g>
<g><path style="opacity:1" fill="#100d0c" d="M 315.5,248.5 C 316.768,246.095 317.435,243.428 317.5,240.5C 319.906,238.59 322.572,237.257 325.5,236.5C 328.829,236.785 331.829,236.118 334.5,234.5C 337.463,233.259 340.463,233.259 343.5,234.5C 344.95,235.85 345.617,237.516 345.5,239.5C 343.167,239.5 340.833,239.5 338.5,239.5C 338.719,240.675 338.386,241.675 337.5,242.5C 334.291,243.215 331.291,244.382 328.5,246C 327.619,246.708 326.953,247.542 326.5,248.5C 325.177,252.598 325.511,256.598 327.5,260.5C 327.175,269.273 330.675,275.94 338,280.5C 338.483,281.448 338.649,282.448 338.5,283.5C 334.491,283.961 330.824,283.128 327.5,281C 321.826,275.477 317.826,268.977 315.5,261.5C 313.404,262.62 313.07,264.12 314.5,266C 309.833,270.667 305.167,275.333 300.5,280C 296.008,281.669 291.508,281.835 287,280.5C 286.405,279.101 286.572,277.768 287.5,276.5C 295.594,272.573 301.927,266.739 306.5,259C 305.978,248.479 300.811,241.312 291,237.5C 290.51,236.207 290.343,234.873 290.5,233.5C 292.857,233.337 295.19,233.503 297.5,234C 305.472,236.516 311.472,241.349 315.5,248.5 Z"/></g>
<g><path style="opacity:1" fill="#100c0a" d="M 411.5,233.5 C 411.5,235.5 411.5,237.5 411.5,239.5C 401.319,239.173 391.319,239.506 381.5,240.5C 380.307,240.97 379.64,241.97 379.5,243.5C 379.11,245.982 380.11,247.315 382.5,247.5C 389.577,252.049 396.577,256.882 403.5,262C 406.046,263.44 408.713,264.606 411.5,265.5C 412.452,267.045 412.785,268.712 412.5,270.5C 409.15,270.665 405.817,270.498 402.5,270C 400.024,267.429 397.024,265.929 393.5,265.5C 393.616,268.86 393.949,272.193 394.5,275.5C 392.019,275.677 390.186,274.677 389,272.5C 387.704,269.161 386.537,265.827 385.5,262.5C 384.5,262.5 383.5,262.5 382.5,262.5C 381.382,269.28 377.382,272.28 370.5,271.5C 370.576,268.027 371.242,264.694 372.5,261.5C 374.873,260.797 376.873,259.464 378.5,257.5C 379.57,253.496 377.903,250.829 373.5,249.5C 372.833,249.167 372.167,248.833 371.5,248.5C 371.5,243.5 371.5,238.5 371.5,233.5C 384.833,233.5 398.167,233.5 411.5,233.5 Z"/></g>
<g><path style="opacity:1" fill="#100d0c" d="M 611.5,238.5 C 614.99,237.743 618.323,236.743 621.5,235.5C 625.545,233.823 629.878,233.156 634.5,233.5C 634.357,235.262 634.691,236.929 635.5,238.5C 633.604,239.466 631.604,239.799 629.5,239.5C 629.5,240.5 629.5,241.5 629.5,242.5C 625.101,243.237 621.101,244.904 617.5,247.5C 617.668,255.875 618.835,264.209 621,272.5C 623,275.833 625.667,278.5 629,280.5C 629.483,281.448 629.649,282.448 629.5,283.5C 623.646,284.695 618.98,283.028 615.5,278.5C 611.95,273.391 608.95,268.058 606.5,262.5C 602.824,268.617 597.824,274.451 591.5,280C 586.934,281.309 582.267,281.809 577.5,281.5C 577.357,279.738 577.691,278.071 578.5,276.5C 586.828,272.503 593.161,266.503 597.5,258.5C 596.678,251.026 593.345,244.859 587.5,240C 583.26,239.744 581.26,237.578 581.5,233.5C 592.079,234.541 600.246,239.541 606,248.5C 606.393,245.367 607.226,242.367 608.5,239.5C 609.417,238.873 610.417,238.539 611.5,238.5 Z"/></g>
<g><path style="opacity:1" fill="#736309" d="M 334.5,234.5 C 331.829,236.118 328.829,236.785 325.5,236.5C 328.273,235.343 331.273,234.676 334.5,234.5 Z"/></g>
<g><path style="opacity:1" fill="#8c7f13" d="M 621.5,235.5 C 618.323,236.743 614.99,237.743 611.5,238.5C 611.62,237.414 612.287,236.747 613.5,236.5C 616.115,235.731 618.781,235.397 621.5,235.5 Z"/></g>
<g><path style="opacity:1" fill="#14100d" d="M 511.5,236.5 C 515.444,236.113 519.111,236.78 522.5,238.5C 524.305,240.197 526.639,241.03 529.5,241C 535.157,241.499 540.824,241.666 546.5,241.5C 548.948,242.473 551.615,242.806 554.5,242.5C 554.519,244.06 554.852,245.56 555.5,247C 553.278,248.608 551.945,250.775 551.5,253.5C 550.596,254.209 550.263,255.209 550.5,256.5C 554.5,256.5 558.5,256.5 562.5,256.5C 562.5,257.833 562.5,259.167 562.5,260.5C 557.968,260.182 553.634,260.515 549.5,261.5C 547.352,264.446 545.019,267.446 542.5,270.5C 545.199,272.898 546.533,275.898 546.5,279.5C 544.473,279.662 542.473,279.495 540.5,279C 535.153,274.812 531.986,269.312 531,262.5C 524.039,257.871 520.539,251.204 520.5,242.5C 519.167,242.5 517.833,242.5 516.5,242.5C 516.605,246.319 517.438,249.986 519,253.5C 521.157,255.817 522.657,258.484 523.5,261.5C 524.576,264.734 525.243,268.068 525.5,271.5C 524.127,271.657 522.793,271.49 521.5,271C 520.947,269.122 519.947,267.622 518.5,266.5C 518.155,263.626 516.655,261.626 514,260.5C 513.851,256.867 513.018,253.534 511.5,250.5C 510.222,245.802 510.222,241.135 511.5,236.5 Z"/></g>
<g><path style="opacity:1" fill="#434930" d="M 411.5,233.5 C 412.468,235.607 412.802,237.941 412.5,240.5C 402.167,240.5 391.833,240.5 381.5,240.5C 391.319,239.506 401.319,239.173 411.5,239.5C 411.5,237.5 411.5,235.5 411.5,233.5 Z"/></g>
<g><path style="opacity:1" fill="#8f4e10" d="M 511.5,236.5 C 510.222,241.135 510.222,245.802 511.5,250.5C 510.883,250.389 510.383,250.056 510,249.5C 509.833,247.333 509.667,245.167 509.5,243C 509.533,240.39 510.2,238.223 511.5,236.5 Z"/></g>
<g><path style="opacity:1" fill="#504d2b" d="M 180.5,238.5 C 184.97,237.514 189.637,237.181 194.5,237.5C 194.5,239.167 194.5,240.833 194.5,242.5C 191.833,242.5 189.167,242.5 186.5,242.5C 188.116,241.011 190.116,240.011 192.5,239.5C 188.555,238.509 184.555,238.176 180.5,238.5 Z"/></g>
<g><path style="opacity:1" fill="#a19c28" d="M 381.5,240.5 C 391.833,240.5 402.167,240.5 412.5,240.5C 402.347,241.494 392.014,241.828 381.5,241.5C 381.325,243.621 381.659,245.621 382.5,247.5C 380.11,247.315 379.11,245.982 379.5,243.5C 379.64,241.97 380.307,240.97 381.5,240.5 Z"/></g>
<g><path style="opacity:1" fill="#7e7e16" d="M 522.5,238.5 C 530.559,239.831 538.559,240.831 546.5,241.5C 540.824,241.666 535.157,241.499 529.5,241C 526.639,241.03 524.305,240.197 522.5,238.5 Z"/></g>
<g><path style="opacity:1" fill="#14110d" d="M 180.5,238.5 C 184.555,238.176 188.555,238.509 192.5,239.5C 190.116,240.011 188.116,241.011 186.5,242.5C 179.351,244.448 178.518,248.115 184,253.5C 184.497,255.81 184.663,258.143 184.5,260.5C 182.5,260.5 180.5,260.5 178.5,260.5C 178.64,257.267 177.473,254.601 175,252.5C 174.333,254.167 174.333,255.833 175,257.5C 178.05,262.658 180.717,267.992 183,273.5C 183.758,275.769 183.591,277.936 182.5,280C 181.056,280.781 179.723,280.614 178.5,279.5C 177.52,278.019 176.353,276.685 175,275.5C 172.386,271.319 170.219,266.986 168.5,262.5C 166.523,265.992 164.69,269.658 163,273.5C 161.172,275.081 159.172,276.415 157,277.5C 156.517,278.448 156.351,279.448 156.5,280.5C 155.167,280.5 153.833,280.5 152.5,280.5C 152.335,277.15 152.502,273.817 153,270.5C 155.973,265.587 159.64,261.254 164,257.5C 164.494,255.866 164.66,254.199 164.5,252.5C 159.915,253.242 156.582,255.742 154.5,260C 153.552,260.483 152.552,260.649 151.5,260.5C 150.313,254.614 152.146,249.948 157,246.5C 157.494,244.866 157.66,243.199 157.5,241.5C 153.111,240.821 150.111,238.488 148.5,234.5C 153.033,234.304 157.367,235.137 161.5,237C 163.746,238.257 165.079,240.09 165.5,242.5C 168.518,242.665 171.518,242.498 174.5,242C 175.889,239.812 177.889,238.646 180.5,238.5 Z"/></g>
<g><path style="opacity:1" fill="#9e6e0e" d="M 317.5,240.5 C 317.435,243.428 316.768,246.095 315.5,248.5C 315.294,245.505 315.96,242.838 317.5,240.5 Z"/></g>
<g><path style="opacity:1" fill="#f2e612" d="M 530.5,244.5 C 535.736,246.214 541.069,247.547 546.5,248.5C 547.212,256.773 543.546,261.44 535.5,262.5C 534.622,258.43 532.455,255.096 529,252.5C 528.109,249.502 528.609,246.836 530.5,244.5 Z"/></g>
<g><path style="opacity:1" fill="#f8ed09" d="M 260.5,241.5 C 260.666,251.172 260.5,260.839 260,270.5C 258.961,271.71 257.794,272.71 256.5,273.5C 246.75,273.806 237.084,273.473 227.5,272.5C 226.001,270.51 225.168,268.177 225,265.5C 224.184,256.921 224.351,248.421 225.5,240C 236.833,239.333 248.167,239.333 259.5,240C 260.056,240.383 260.389,240.883 260.5,241.5 Z"/></g>
<g><path style="opacity:1" fill="#9f6a08" d="M 260.5,241.5 C 261.658,251.325 261.825,261.325 261,271.5C 259.871,273.141 258.371,274.141 256.5,274.5C 256.5,274.167 256.5,273.833 256.5,273.5C 257.794,272.71 258.961,271.71 260,270.5C 260.5,260.839 260.666,251.172 260.5,241.5 Z"/></g>
<g><path style="opacity:1" fill="#a87714" d="M 449.5,242.5 C 450.924,244.515 451.59,246.848 451.5,249.5C 449.837,247.562 449.171,245.228 449.5,242.5 Z"/></g>
<g><path style="opacity:1" fill="#7c4f0c" d="M 373.5,249.5 C 377.903,250.829 379.57,253.496 378.5,257.5C 378.649,256.448 378.483,255.448 378,254.5C 376.293,252.963 374.793,251.296 373.5,249.5 Z"/></g>
<g><path style="opacity:1" fill="#678351" d="M 326.5,248.5 C 326.646,252.519 326.979,256.519 327.5,260.5C 325.511,256.598 325.177,252.598 326.5,248.5 Z"/></g>
<g><path style="opacity:1" fill="#5f5b42" d="M 270.5,238.5 C 271.494,248.653 271.828,258.986 271.5,269.5C 270.5,269.5 269.5,269.5 268.5,269.5C 270.438,259.425 271.105,249.091 270.5,238.5 Z"/></g>
<g><path style="opacity:1" fill="#727540" d="M 551.5,253.5 C 555.029,255.423 559.029,256.089 563.5,255.5C 563.5,257.5 563.5,259.5 563.5,261.5C 558.833,261.5 554.167,261.5 549.5,261.5C 553.634,260.515 557.968,260.182 562.5,260.5C 562.5,259.167 562.5,257.833 562.5,256.5C 558.5,256.5 554.5,256.5 550.5,256.5C 550.263,255.209 550.596,254.209 551.5,253.5 Z"/></g>
<g><path style="opacity:1" fill="#524823" d="M 523.5,261.5 C 524.79,262.058 525.623,263.058 526,264.5C 526.497,267.146 526.664,269.813 526.5,272.5C 521.231,273.861 518.564,271.861 518.5,266.5C 519.947,267.622 520.947,269.122 521.5,271C 522.793,271.49 524.127,271.657 525.5,271.5C 525.243,268.068 524.576,264.734 523.5,261.5 Z"/></g>
<g><path style="opacity:1" fill="#a4a42a" d="M 227.5,272.5 C 237.084,273.473 246.75,273.806 256.5,273.5C 256.5,273.833 256.5,274.167 256.5,274.5C 246.442,275.14 236.775,274.473 227.5,272.5 Z"/></g>
<g><path style="opacity:1" fill="#d1b011" d="M 606.5,262.5 C 608.95,268.058 611.95,273.391 615.5,278.5C 614.127,278.657 612.793,278.49 611.5,278C 611.833,277.667 612.167,277.333 612.5,277C 611.333,276.5 610.5,275.667 610,274.5C 609.667,274.833 609.333,275.167 609,275.5C 608.735,271.032 607.901,266.698 606.5,262.5 Z"/></g>
<g><path style="opacity:1" fill="#b17906" d="M 437.5,272.5 C 436.631,274.717 436.298,277.05 436.5,279.5C 435.848,278.551 435.514,277.385 435.5,276C 435.608,274.319 436.275,273.152 437.5,272.5 Z"/></g>
<g><path style="opacity:1" fill="#007bbe" d="M -0.5,401.5 C 266.167,401.5 532.833,401.5 799.5,401.5C 799.5,402.167 799.5,402.833 799.5,403.5C 532.833,403.5 266.167,403.5 -0.5,403.5C -0.5,402.833 -0.5,402.167 -0.5,401.5 Z"/></g>
<g><path style="opacity:1" fill="#017bc2" d="M -0.5,403.5 C 266.167,403.5 532.833,403.5 799.5,403.5C 799.5,446.5 799.5,489.5 799.5,532.5C 532.833,532.5 266.167,532.5 -0.5,532.5C -0.5,489.5 -0.5,446.5 -0.5,403.5 Z"/></g>
</svg>
